ModelForces
version=1
nRows=18
nColumns=29
inDegrees=no

This file contains the forces exerted on a model during a simulation.

A force is a generalized force, meaning that it can be either a force (N) or a torque (Nm).

Units are S.I. units (second, meters, Newtons, ...)
If the header above contains a line with 'inDegrees', this indicates whether rotational values are in degrees (yes) or radians (no).

endheader
time	gastroc	glut_max	iliopsoas	recfem	hamstrings	soleus	tibant	vasti	ankle_angle_LimitForce	PotentialEnergy	knee_angle_LimitForce	PotentialEnergy	hip_flexion_LimitForce	PotentialEnergy	patellofemoral_knee_angle_con_mobility_F0	patellofemoral_knee_angle_con_mobility_F1	seatConstraint_ground_Fx	seatConstraint_ground_Fy	seatConstraint_ground_Fz	seatConstraint_ground_Mx	seatConstraint_ground_My	seatConstraint_ground_Mz	seatConstraint_femur_r_Fx	seatConstraint_femur_r_Fy	seatConstraint_femur_r_Fz	seatConstraint_femur_r_Mx	seatConstraint_femur_r_My	seatConstraint_femur_r_Mz
      0.56687680	     16.31957881	    209.03743471	    114.99565308	    114.66885374	     65.82332824	    171.87632738	      7.26133327	   1955.99731435	      0.00000000	      0.00000000	      0.00000000	      0.00000000	      0.00000000	      0.00000000	    -25.94689670	     25.94689670	     91.87715897	    125.98280917	     -0.00000531	      0.96433722	     -0.70327845	    -81.14191743	    -91.87715897	   -125.98280917	      0.00000531	      0.00000000	      0.00000000	      0.00000000
      0.56819551	     16.31957881	    210.75135622	    114.07035345	    113.85154092	     62.53933607	    171.87632738	      7.26133327	   1956.71516307	      0.00000000	      0.00000000	      0.00000000	      0.00000000	      0.00000000	      0.00000000	    -25.94843813	     25.94843813	     92.26733689	    125.65371296	     -0.00000527	      0.96181816	     -0.70626507	    -81.27735367	    -92.26733689	   -125.65371296	      0.00000527	      0.00000000	      0.00000000	      0.00000000
      0.57175110	     16.31957881	    215.36888220	    111.58625635	    111.63951644	     61.53393998	    171.87632738	      7.26133327	   1958.60174756	      0.00000000	      0.00000000	      0.00000000	      0.00000000	      0.00000000	      0.00000000	    -25.95188396	     25.95188396	     92.01547279	    124.85804186	     -0.00000522	      0.95572769	     -0.70433715	    -80.94592332	    -92.01547279	   -124.85804186	      0.00000522	      0.00000000	      0.00000000	      0.00000000
      0.57705261	     16.31957881	    222.24733814	    107.91075283	    108.32178476	     70.68110256	    171.87632738	      7.26133327	   1961.30245844	      0.00000000	      0.00000000	      0.00000000	      0.00000000	      0.00000000	      0.00000000	    -25.95538335	     25.95538335	     89.87521029	    123.81161143	     -0.00000523	      0.94771775	     -0.68795444	    -79.51278985	    -89.87521029	   -123.81161143	      0.00000523	      0.00000000	      0.00000000	      0.00000000
      0.57785513	     16.31957881	    223.28704581	    107.35804654	    107.81772844	     65.17213020	    171.87632738	      7.26133327	   1961.70133987	      0.00000000	      0.00000000	      0.00000000	      0.00000000	      0.00000000	      0.00000000	    -25.95576649	     25.95576649	     90.69426144	    123.57371288	     -0.00000518	      0.94589677	     -0.69422388	    -79.90672278	    -90.69426144	   -123.57371288	      0.00000518	      0.00000000	      0.00000000	      0.00000000
      0.58005489	     16.31957881	    226.13644200	    105.84598740	    106.43410517	     63.73428402	    171.87632738	      7.26133327	   1962.78307545	      0.00000000	      0.00000000	      0.00000000	      0.00000000	      0.00000000	      0.00000000	    -25.95664626	     25.95664626	     90.67558814	    123.08540670	     -0.00000515	      0.94215903	     -0.69408094	    -79.77823788	    -90.67558814	   -123.08540670	      0.00000515	      0.00000000	      0.00000000	      0.00000000
      0.58582861	     16.31957881	    233.60658913	    101.90290005	    102.79075397	     66.41032719	    171.87632738	      7.26133327	   1965.55230568	      0.00000000	      0.00000000	      0.00000000	      0.00000000	      0.00000000	      0.00000000	    -25.95792567	     25.95792567	     89.56477020	    121.89781820	     -0.00000511	      0.93306861	     -0.68557813	    -78.87843527	    -89.56477020	   -121.89781820	      0.00000511	      0.00000000	      0.00000000	      0.00000000
      0.58812815	     16.31957881	    236.57750928	    100.34316123	    101.33586285	     64.92133577	    171.87632738	      7.26133327	   1966.63154866	      0.00000000	      0.00000000	      0.00000000	      0.00000000	      0.00000000	      0.00000000	    -25.95808615	     25.95808615	     89.54701564	    121.39801574	     -0.00000507	      0.92924287	     -0.68544222	    -78.74767425	    -89.54701564	   -121.39801574	      0.00000507	      0.00000000	      0.00000000	      0.00000000
      0.59388724	     16.31957881	    244.00926344	     96.46022478	     97.68584956	     69.32827784	    171.87632738	      7.26133327	   1969.28786377	      0.00000000	      0.00000000	      0.00000000	      0.00000000	      0.00000000	      0.00000000	    -25.95780537	     25.95780537	     88.16824185	    120.26804058	     -0.00000505	      0.92059345	     -0.67488834	    -77.71410175	    -88.16824185	   -120.26804058	      0.00000505	      0.00000000	      0.00000000	      0.00000000
      0.59485223	     16.31957881	    245.25161285	     95.81327499	     97.07354035	     67.14208138	    171.87632738	      7.26133327	   1969.72738933	      0.00000000	      0.00000000	      0.00000000	      0.00000000	      0.00000000	      0.00000000	    -25.95767645	     25.95767645	     88.42178506	    120.04197512	     -0.00000502	      0.91886304	     -0.67682909	    -77.79915384	    -88.42178506	   -120.04197512	      0.00000502	      0.00000000	      0.00000000	      0.00000000
      0.59895910	     16.31957881	    250.53956036	     93.06979745	     94.46634537	     59.74786655	    171.87632738	      7.26133327	   1971.58319053	      0.00000000	      0.00000000	      0.00000000	      0.00000000	      0.00000000	      0.00000000	    -25.95691360	     25.95691360	     89.17949843	    119.09962662	     -0.00000492	      0.91164985	     -0.68262901	    -77.98876640	    -89.17949843	   -119.09962662	      0.00000492	      0.00000000	      0.00000000	      0.00000000
      0.60243871	     16.31957881	    255.15163040	     90.73962854	     92.25614286	     67.37865751	    171.87632738	      7.26133327	   1973.13842243	      0.00000000	      0.00000000	      0.00000000	      0.00000000	      0.00000000	      0.00000000	    -25.95601962	     25.95601962	     87.53112194	    118.49767320	     -0.00000494	      0.90704216	     -0.67001146	    -76.93437507	    -87.53112194	   -118.49767320	      0.00000494	      0.00000000	      0.00000000	      0.00000000
      0.60944701	     16.31957881	    265.55224424	     85.89540736	     87.80055149	     89.27390386	    171.87632738	      7.26133327	   1976.20115441	      0.00000000	      0.00000000	      0.00000000	      0.00000000	      0.00000000	      0.00000000	    -25.95324295	     25.95324295	     83.06195758	    117.33501905	     -0.00000504	      0.89814253	     -0.63580209	    -74.18926756	    -83.06195758	   -117.33501905	      0.00000504	      0.00000000	      0.00000000	      0.00000000
      0.61021678	     16.31957881	    266.74807674	     85.35274551	     87.31058205	     71.26476231	    171.87632738	      7.26133327	   1976.53042092	      0.00000000	      0.00000000	      0.00000000	      0.00000000	      0.00000000	      0.00000000	    -25.95283742	     25.95283742	     85.90537086	    116.88214975	     -0.00000489	      0.89467611	     -0.65756707	    -75.64712912	    -85.90537086	   -116.88214975	      0.00000489	      0.00000000	      0.00000000	      0.00000000
      0.61155691	     16.31957881	    268.84777163	     84.40167424	     86.45737036	     69.62095486	    171.87632738	      7.26133327	   1977.10005285	      0.00000000	      0.00000000	      0.00000000	      0.00000000	      0.00000000	      0.00000000	    -25.95208160	     25.95208160	     85.99497317	    116.56204741	     -0.00000487	      0.89222589	     -0.65825293	    -75.61904533	    -85.99497317	   -116.56204741	      0.00000487	      0.00000000	      0.00000000	      0.00000000
      0.61651371	     16.31957881	    276.74247143	     80.83150978	     83.29835869	     60.13607639	    171.87632738	      7.26133327	   1979.16708460	      0.00000000	      0.00000000	      0.00000000	      0.00000000	      0.00000000	      0.00000000	    -25.94872518	     25.94872518	     86.86768345	    115.31258448	     -0.00000474	      0.88266189	     -0.66493309	    -75.79771688	    -86.86768345	   -115.31258448	      0.00000474	      0.00000000	      0.00000000	      0.00000000
      0.61811596	     16.31957881	    279.32513875	     79.66001858	     82.27600141	     67.16417744	    171.87632738	      7.26133327	   1979.82205022	      0.00000000	      0.00000000	      0.00000000	      0.00000000	      0.00000000	      0.00000000	    -25.94745292	     25.94745292	     85.50068040	    115.07526163	     -0.00000478	      0.88084528	     -0.65446933	    -74.98669318	    -85.50068040	   -115.07526163	      0.00000478	      0.00000000	      0.00000000	      0.00000000
      0.62259504	     16.31957881	    286.58406461	     76.34904090	     79.41418818	     74.44846499	    171.87632738	      7.26133327	   1981.62076257	      0.00000000	      0.00000000	      0.00000000	      0.00000000	      0.00000000	      0.00000000	    -25.94342897	     25.94342897	     83.69491418	    114.21520568	     -0.00000479	      0.87426194	     -0.64064702	    -73.78306651	    -83.69491418	   -114.21520568	      0.00000479	      0.00000000	      0.00000000	      0.00000000
